<?xml version="1.0" encoding="utf-8"?>
<!-- Generator: Adobe Illustrator 22.1.0, SVG Export Plug-In . SVG Version: 6.00 Build 0)  -->
<svg version="1.1" id="Layer_1" xmlns="http://www.w3.org/2000/svg" xmlns:xlink="http://www.w3.org/1999/xlink" x="0px" y="0px"
	 viewBox="0 0 100 100" style="enable-background:new 0 0 100 100;" xml:space="preserve">
<path d="M36.5,50c0-7.5,6-13.6,13.5-13.6s13.5,6.1,13.5,13.5c0,7.5-6,13.5-13.5,13.5C42.5,63.5,36.5,57.5,36.5,50L36.5,50z
	 M71.8,8.7H28.2c-10.7,0-19.5,8.8-19.5,19.5v43.6c0,10.8,8.8,19.6,19.5,19.6h43.6c10.8,0,19.6-8.8,19.6-19.5V28.2
	C91.3,17.5,82.5,8.7,71.8,8.7L71.8,8.7z M28.6,14.3h42.6c7.9,0,14.3,6.4,14.3,14.3v42.6c0,7.9-6.4,14.3-14.3,14.3H28.6
	c-7.9,0-14.3-6.4-14.3-14.3V28.6C14.3,20.7,20.7,14.3,28.6,14.3L28.6,14.3z M71.9,23.6c-2.3,0-4.2,1.9-4.2,4.2s1.9,4.2,4.2,4.2
	c2.3,0,4.2-1.9,4.2-4.2S74.3,23.6,71.9,23.6L71.9,23.6z M69.7,50c0-10.9-8.8-19.8-19.8-19.8C39,30.2,30.1,39.1,30.1,50
	S39,69.8,49.9,69.8C60.9,69.7,69.7,60.9,69.7,50L69.7,50z"/>
</svg>
